<svg style="vertical-align: middle; overflow: hidden;" viewBox="0 0 1024 1024" version="1.1" xmlns="http://www.w3.org/2000/svg">
      <path d="M 276.88946,190.56682 A 397.6702,397.6702 0 0 0 113.76634,512.00026 c 0,62.46397 14.3872,121.59993 40.03838,174.23351 L 427.77579,456.90908 514.86694,226.202 V 613.88821 L 252.21107,813.82411 A 396.6462,396.6462 0 0 0 511.99974,910.23366 396.851,396.851 0 0 0 786.07321,800.92171 L 540.46693,613.8882 V 226.202 l 87.03996,230.70708 251.34067,210.3295 A 398.2846,398.2846 0 0 0 680.70366,151.14284 L 737.79163,52.326886 A 511.99974,511.99974 0 0 1 1023.9995,512.00026 C 1023.9995,794.77772 794.7772,1024 511.99974,1024 229.22228,1024 0,794.77771 0,512.00026 0,337.92034 86.937557,184.06442 219.69909,91.546066 Z m 23.55199,-16.0256 a 396.339,396.339 0 0 1 211.55829,-60.77436 c 50.17598,0 98.15035,9.26719 142.33593,26.21438 L 711.78204,40.448492 A 510.36134,510.36134 0 0 0 511.99974,5.12e-4 509.59334,509.59334 0 0 0 243.55828,75.930074 l 56.93437,98.662346 z" />
      <path transform="matrix(0.3,0,0,0.3,540,480)" d="M 921.1,720.284 540.318,388.788 C 550.362,340.131 568.256,209.228 495.426,136.399 447.398,88.369 383.671,62.001 316.179,62.001 c -16.638,0 -33.276,1.569 -49.599,4.709 -4.395,0.942 -8.162,4.081 -9.417,8.476 -1.256,4.395 0,9.104 3.14,12.243 L 368.918,196.044 390.579,301.206 301.741,390.044 196.579,368.383 87.964,259.768 c -3.14,-3.14 -8.162,-4.395 -12.557,-3.14 -4.395,1.256 -7.534,5.023 -8.476,9.417 -16.638,83.187 9.417,168.887 69.376,228.846 35.786,35.786 91.35,54.622 161.039,54.622 29.195,0 60.586,-3.453 91.35,-9.731 L 720.192,919.935 C 747.503,947.244 782.975,962 820.959,962 c 37.67,0 73.456,-14.754 100.14,-41.437 55.251,-55.251 55.251,-145.343 0.002,-200.279" fill="white"/>
</svg>
